:SAMPLES-PER-SECOND 30
:FULLY-SPECIFIED
:DEGREES
787
root  -52.5499 39.4688 30.2239 177.183 -34.4408 178.821
RightUpLeg  -17.7224 -8.82618 2.95356
RightLeg  30.5206 -0.407143 -0.509105
RightFoot  -7.55401 0.237381 -8.68597
RightToes  0.00048216 0.542163 -0.142577
Spine  30.7354 0.0743343 17.7404
Spine1  12.0049 6.45008 -5.17704
HEad  -6.85846 -22.6466 12.3079
LeftShoulder1  9.44688 -13.9445 -47.2518
LeftArm  -3.96652 16.4563 -28.9138
LeftForeArm  38.5816 -37.3486 -6.21218
LeftHand  -0.25398 0.0180481 5.50724
RightShoulder  5.29589 10.3315 32.3354
RightArm  -17.2836 32.1306 29.8897
RightForeArm  -5.7123 22.5463 5.17604
RightHand  -10.1079 23.5564 -39.3185
LeftUpLeg  -23.1958 4.05209 7.07018
LeftLeg  23.3573 -2.47235 -0.906165
LeftFoot  2.72491 1.00167 -8.2239
LeftToes  1.06247e-005 4.65855e-005 -8.18501e-006
788
root  -53.6779 39.3215 30.1746 177.387 -30.5176 178.783
RightUpLeg  -18.2729 -5.31269 1.73249
RightLeg  32.8773 0.0344117 -0.237419
RightFoot  -8.88682 0.104382 -7.6803
RightToes  0.00048216 0.542163 -0.142577
Spine  32.6281 0.307644 18.0037
Spine1  12.1634 7.62296 -6.71069
HEad  -8.11855 -22.1984 12.5817
LeftShoulder1  9.56319 -14.1865 -47.1781
LeftArm  -3.30241 16.1371 -28.5308
LeftForeArm  37.432 -37.2793 -6.25955
LeftHand  -0.25398 0.0180481 5.50724
RightShoulder  5.46555 10.8954 32.0111
RightArm  -18.1556 36.6732 27.8508
RightForeArm  -7.47012 22.1202 5.24274
RightHand  -10.0596 23.4465 -39.2835
LeftUpLeg  -21.9051 -1.26384 9.27935
LeftLeg  16.1908 -5.24734 -1.43923
LeftFoot  4.27799 1.60023 -11.8518
LeftToes  1.06247e-005 4.65855e-005 -8.18501e-006
789
root  -54.8081 39.1285 30.1668 177.874 -26.8879 178.433
RightUpLeg  -19.4356 -1.90263 0.145773
RightLeg  35.6641 -0.0926988 -0.342946
RightFoot  -10.2444 -0.00362508 -6.67803
RightToes  0.00048216 0.542163 -0.142577
Spine  34.4848 0.502124 17.631
Spine1  12.2165 8.64869 -8.3707
HEad  -9.25078 -21.9696 12.8555
LeftShoulder1  9.62372 -14.3887 -46.9346
LeftArm  -2.76492 15.7281 -28.2025
LeftForeArm  37.0072 -37.072 -6.22854
LeftHand  -0.25398 0.0180481 5.50724
RightShoulder  5.59127 11.3875 31.5975
RightArm  -19.7076 41.0876 25.7411
RightForeArm  -8.3507 20.3223 5.30066
RightHand  -9.53202 22.7686 -38.2208
LeftUpLeg  -22.0886 -1.74293 9.01179
LeftLeg  15.6745 -6.06097 -1.60608
LeftFoot  5.35948 1.65683 -11.5036
LeftToes  1.06247e-005 4.65855e-005 -8.18501e-006
790
root  -55.9105 38.9268 30.2141 178.879 -23.5825 177.744
RightUpLeg  -21.5967 0.757204 -1.83562
RightLeg  38.8861 -0.524203 -0.734719
RightFoot  -11.0354 -0.0633149 -4.35354
RightToes  0.00048216 0.542163 -0.142577
Spine  36.0794 0.858958 16.6235
Spine1  12.2025 9.48307 -9.679
HEad  -10.4271 -21.8853 12.9359
LeftShoulder1  9.76821 -14.5868 -47.1209
LeftArm  -2.04297 14.9226 -27.5206
LeftForeArm  36.5818 -36.5965 -6.12687
LeftHand  -0.25398 0.0180481 5.50724
RightShoulder  5.58344 11.7121 30.7348
RightArm  -22.7976 45.2983 23.7413
RightForeArm  -8.06089 17.3965 5.50893
RightHand  -8.79589 21.8314 -36.6368
LeftUpLeg  -23.5895 2.65439 6.51366
LeftLeg  19.2981 -6.63368 -2.25006
LeftFoot  5.71819 1.20438 -8.23089
LeftToes  1.06247e-005 4.65855e-005 -8.18501e-006
791
root  -56.9584 38.7695 30.3295 -179.786 -20.9517 176.972
RightUpLeg  -24.6966 1.34989 -3.76379
RightLeg  42.3753 -1.29054 -1.57213
RightFoot  -10.2991 -0.0649357 -1.06184
RightToes  0.00048216 0.542163 -0.142577
Spine  37.5618 1.08646 15.7428
Spine1  12.0409 10.0235 -10.705
HEad  -12.0552 -21.9566 12.7874
LeftShoulder1  10.013 -14.881 -47.5377
LeftArm  -1.03388 13.4532 -26.5992
LeftForeArm  35.54 -35.8482 -5.99032
LeftHand  -0.25398 0.0180481 5.50724
RightShoulder  5.45132 11.9122 29.3782
RightArm  -27.5231 48.9185 21.7292
RightForeArm  -7.38914 14.2127 5.57631
RightHand  -8.25362 21.1986 -35.313
LeftUpLeg  -25.6788 5.93967 3.93311
LeftLeg  23.082 -6.06396 -2.4982
LeftFoot  4.73208 0.754938 -5.54836
LeftToes  1.06247e-005 4.65855e-005 -8.18501e-006
792
root  -57.9023 38.7478 30.5009 -178.357 -19.2962 176.371
RightUpLeg  -27.9275 -0.415449 -4.8936
RightLeg  45.1897 -3.17787 -3.74929
RightFoot  -7.77356 -0.0846403 1.10001
RightToes  0.00048216 0.542163 -0.142577
Spine  39.174 0.877331 15.4961
Spine1  11.7354 10.2798 -11.7559
HEad  -14.1894 -22.3024 12.535
LeftShoulder1  10.2036 -15.2405 -47.5133
LeftArm  -0.24065 11.4752 -26.0547
LeftForeArm  34.2874 -35.2838 -5.91526
LeftHand  -0.25398 0.0180481 5.50724
RightShoulder  5.26186 12.0514 27.8032
RightArm  -32.6937 51.5815 19.5344
RightForeArm  -7.50258 11.6561 5.15616
RightHand  -7.91403 20.983 -34.2206
LeftUpLeg  -27.4988 6.9654 1.90142
LeftLeg  24.9428 -5.43299 -2.42358
LeftFoot  3.41406 0.555158 -4.45262
LeftToes  1.06247e-005 4.65855e-005 -8.18501e-006
793
root  -58.7449 38.8498 30.6779 -176.944 -18.2345 176.203
RightUpLeg  -30.4863 -3.36521 -4.78633
RightLeg  46.3347 -5.93269 -6.92334
RightFoot  -5.17129 -0.114233 1.48735
RightToes  0.00048216 0.542163 -0.142577
Spine  40.6696 0.437843 15.9249
Spine1  11.4789 10.4917 -12.7284
HEad  -16.3091 -22.9848 12.3131
LeftShoulder1  10.2322 -15.4988 -46.9868
LeftArm  -0.2792 9.55102 -26.1624
LeftForeArm  33.7147 -35.6018 -6.03069
LeftHand  -0.25398 0.0180481 5.50724
RightShoulder  5.06155 12.0896 26.3875
RightArm  -37.2107 53.3121 17.1537
RightForeArm  -8.31484 10.0295 4.48469
RightHand  -7.64074 20.981 -33.1231
LeftUpLeg  -28.7529 8.0298 0.137558
LeftLeg  24.9957 -5.44613 -2.43324
LeftFoot  3.01002 0.421212 -3.49674
LeftToes  1.06247e-005 4.65855e-005 -8.18501e-006
794
root  -59.5091 39.0201 30.821 -175.441 -17.0934 176.445
RightUpLeg  -32.0553 -6.19446 -3.67932
RightLeg  44.8416 -8.01276 -8.7531
RightFoot  -4.59242 -0.132326 1.73387
RightToes  0.00048216 0.542163 -0.142577
Spine  41.666 0.308051 16.5412
Spine1  11.3144 10.9085 -13.2841
HEad  -17.9358 -23.9361 12.1468
LeftShoulder1  10.1825 -15.5742 -46.5634
LeftArm  -1.04853 8.24677 -26.48
LeftForeArm  33.9237 -37.1739 -6.43716
LeftHand  -0.25398 0.0180481 5.50724
RightShoulder  4.89427 12.0015 25.4574
RightArm  -40.6071 54.3588 14.5121
RightForeArm  -9.25901 9.29404 4.01819
RightHand  -7.61944 21.3217 -32.6393
LeftUpLeg  -29.7193 9.63477 -1.40781
LeftLeg  24.069 -5.56762 -2.38538
LeftFoot  3.42006 0.239794 -2.0144
LeftToes  1.06247e-005 4.65855e-005 -8.18501e-006
795
root  -60.1982 39.2249 30.9184 -173.759 -15.7249 176.8
RightUpLeg  -32.7156 -8.51433 -2.05042
RightLeg  40.4716 -8.43177 -7.94583
RightFoot  -5.99436 -0.166588 2.70906
RightToes  0.00048216 0.542163 -0.142577
Spine  42.2264 0.642841 16.8901
Spine1  11.151 11.504 -13.3502
HEad  -19.2096 -24.9072 12.0228
LeftShoulder1  10.1734 -15.5757 -46.5169
LeftArm  -1.9205 7.73318 -26.528
LeftForeArm  34.2435 -39.7267 -7.13534
LeftHand  -0.25398 0.0180481 5.50724
RightShoulder  4.80391 11.8993 25.0639
RightArm  -42.9755 54.8336 11.5856
RightForeArm  -10.3167 9.42787 3.94046
RightHand  -8.11438 22.2762 -33.4764
LeftUpLeg  -30.6645 10.5284 -2.52969
LeftLeg  22.6819 -5.25619 -2.08138
LeftFoot  3.92236 0.0928345 -0.868016
LeftToes  1.06247e-005 4.65855e-005 -8.18501e-006
796
root  -60.7983 39.4318 30.9704 -172.138 -14.525 177.092
RightUpLeg  -32.6583 -10.2247 -0.382841
RightLeg  34.6742 -7.98809 -6.15168
RightFoot  -7.44192 -0.146912 2.77816
RightToes  0.00048216 0.542163 -0.142577
Spine  42.5658 1.07814 17.012
Spine1  10.9774 12.0057 -13.1795
HEad  -20.5005 -25.4727 11.9869
LeftShoulder1  10.1898 -15.6149 -46.4957
LeftArm  -2.64613 7.75068 -26.3135
LeftForeArm  34.445 -42.5708 -7.98777
LeftHand  -0.25398 0.0180481 5.50724
RightShoulder  4.78372 11.8778 24.972
RightArm  -44.7009 54.7797 9.02399
RightForeArm  -11.5564 10.4204 4.08691
RightHand  -8.9512 23.6052 -35.0948
LeftUpLeg  -31.4006 10.7639 -3.36235
LeftLeg  21.0082 -4.905 -1.74936
LeftFoot  4.38292 0.0351323 -0.446286
LeftToes  1.06247e-005 4.65855e-005 -8.18501e-006
797
root  -61.3117 39.621 30.9812 -170.912 -13.7526 177.351
RightUpLeg  -32.2399 -10.6757 0.631404
RightLeg  29.9392 -8.5096 -5.48897
RightFoot  -7.53276 -0.0792597 0.919404
RightToes  0.00048216 0.542163 -0.142577
Spine  42.6912 1.28198 17.1758
Spine1  10.9076 12.2015 -12.9427
HEad  -21.8035 -25.5347 11.9852
LeftShoulder1  10.173 -15.6647 -46.2923
LeftArm  -3.4326 7.93446 -26.0027
LeftForeArm  34.9439 -45.0362 -8.77363
LeftHand  -0.25398 0.0180481 5.50724
RightShoulder  4.77572 11.8662 24.9421
RightArm  -45.8386 54.3683 7.9648
RightForeArm  -12.613 12.373 4.27041
RightHand  -9.60054 24.6283 -36.2497
LeftUpLeg  -31.6401 11.5477 -4.32377
LeftLeg  19.1392 -5.21553 -1.67427
LeftFoot  5.02054 -0.0360615 0.0360785
LeftToes  1.06247e-005 4.65855e-005 -8.18501e-006
798
root  -61.7638 39.7883 30.9658 -170.114 -13.204 177.502
RightUpLeg  -31.8697 -9.7398 0.42086
RightLeg  27.4962 -9.92372 -5.79433
RightFoot  -6.42538 -0.00989081 -0.803007
RightToes  0.00048216 0.542163 -0.142577
Spine  42.5623 1.3027 17.2134
Spine1  11.0173 12.1003 -12.5779
HEad  -22.9046 -25.4265 11.7726
LeftShoulder1  10.1529 -15.6559 -46.2199
LeftArm  -4.34972 8.09264 -25.5844
LeftForeArm  35.7719 -46.6856 -9.30727
LeftHand  -0.25398 0.0180481 5.50724
RightShoulder  4.74556 11.7879 24.9027
RightArm  -45.759 53.7429 8.85541
RightForeArm  -13.0933 15.744 4.5889
RightHand  -9.75529 24.8952 -36.4809
LeftUpLeg  -31.3933 12.6369 -5.37685
LeftLeg  17.2832 -5.72666 -1.72962
LeftFoot  5.65945 -0.176257 0.949786
LeftToes  1.06247e-005 4.65855e-005 -8.18501e-006
